{"title":"Turbo 2013 CAM x264 AAC-KiSSMYACE","uid":8783256,"size":849608820,"categoryP":"video","categoryS":"movies","magnet":"?xt=urn:btih:27e0982f180aa01336f5f15caf39a43fd370be82&amp;dn=Turbo+2013+CAM+x264+AAC-KiSSMYACE&amp;tr=udp%3A%2F%2Ftracker.openbittorrent.com%3A80&amp;tr=udp%3A%2F%2Fopen.demonii.com%3A1337&amp;tr=udp%3A%2F%2Ftracker.coppersurfer.tk%3A6969&amp;tr=udp%3A%2F%2Fexodus.desync.com%3A6969","seeders":2,"leechers":0,"uploader":"hungry4momoney","files":7,"time":1375763696,"description":"NOTES ^^^ thanks, so i resized to correct aspect, lowered saturation, contrast, raised gamma and brightness slightly, and added sharpen. Audio is cam.  \n  &lt;a href=&quot;\nhttp://www.imdb.com/title/tt1860353/&quot; rel=&quot;nofollow&quot; target=&quot;_NEW&quot;&gt;\nhttp://www.imdb.com/title/tt1860353/&lt;/a&gt;\n\nA freak accident might just help an everyday garden snail achieve his biggest dream: winning the Indy 500.\n\nGeneral\nComplete name                            : Turbo 2013 CAM x264 AAC-KiSSMYACE.mp4\nFormat                                   : MPEG-4\nFormat profile                           : Base Media\nCodec ID                                 : isom\nFile size                                : 792 MiB\nDuration                                 : 1h 26mn\nOverall bit rate mode                    : Variable\nOverall bit rate                         : 1 283 Kbps\nEncoded date                             : UTC 2013-07-27 23:13:31\nTagged date                              : UTC 2013-07-27 23:13:31\n\nVideo\nID                                       : 1\nFormat                                   : AVC\nFormat/Info                              : Advanced Video Codec\nFormat profile                           : &lt;a class=&quot;__cf_email__&quot; href=&quot;/cdn-cgi/l/email-protection&quot; data-cfemail=&quot;2d65444a456d6119031c&quot;&gt;[email&amp;#160;protected]&lt;/a&gt;&lt;script cf-hash='f9e31' type=&quot;text/javascript&quot;&gt;\n/* &lt;![CDATA[ */!function(){try{var t=&quot;currentScript&quot;in document?document.currentScript:function(){for(var t=document.getElementsByTagName(&quot;script&quot;),e=t.length;e--;)if(t[e].getAttribute(&quot;cf-hash&quot;))return t[e]}();if(t&amp;&amp;t.previousSibling){var e,r,n,i,c=t.previousSibling,a=c.getAttribute(&quot;data-cfemail&quot;);if(a){for(e=&quot;&quot;,r=parseInt(a.substr(0,2),16),n=2;a.length-n;n+=2)i=parseInt(a.substr(n,2),16)^r,e+=String.fromCharCode(i);e=document.createTextNode(e),c.parentNode.replaceChild(e,c)}}}catch(u){}}();/* ]]&gt; */&lt;/script&gt;\nFormat settings, CABAC                   : Yes\nFormat settings, ReFrames                : 3 frames\nCodec ID                                 : avc1\nCodec ID/Info                            : Advanced Video Coding\nDuration                                 : 1h 26mn\nBit rate mode                            : Variable\nBit rate                                 : 1 156 Kbps\nMaximum bit rate                         : 40.0 Mbps\nWidth                                    : 720 pixels\nHeight                                   : 304 pixels\nDisplay aspect ratio                     : 2.35:1\nFrame rate mode                          : Constant\nFrame rate                               : 29.970 fps\nColor space                              : YUV\nChroma subsampling                       : 4:2:0\nBit depth                                : 8 bits\nScan type                                : Progressive\nBits/(Pixel*Frame)                       : 0.176\nStream size                              : 714 MiB (90%)\nWriting library                          : x264 core 135 r2345 f0c1c53\n\nAudio\nID                                       : 2\nFormat                                   : AAC\nFormat/Info                              : Advanced Audio Codec\nFormat profile                           : LC\nCodec ID                                 : 40\nDuration                                 : 1h 26mn\nBit rate mode                            : Variable\nBit rate                                 : 123 Kbps\nMaximum bit rate                         : 153 Kbps\nChannel(s)                               : 2 channels\nChannel positions                        : Front: L R\nSampling rate                            : 48.0 KHz\nCompression mode                         : Lossy\nStream size                              : 75.9 MiB (10%)\nLanguage                                 : English\nEncoded date                             : UTC 2013-07-27 21:30:16\nTagged date                              : UTC 2013-07-27 23:13:48\n\n  &lt;a href=&quot;\nhttp://img69.imageshack.us/img69/4871/ee9r.png&quot; rel=&quot;nofollow&quot; target=&quot;_NEW&quot;&gt;\nhttp://img69.imageshack.us/img69/4871/ee9r.png&lt;/a&gt;  &lt;a href=&quot;\nhttp://img827.imageshack.us/img827/5932/lw9m.png&quot; rel=&quot;nofollow&quot; target=&quot;_NEW&quot;&gt;\nhttp://img827.imageshack.us/img827/5932/lw9m.png&lt;/a&gt;  &lt;a href=&quot;\nhttp://img706.imageshack.us/img706/1719/9msc.png&quot; rel=&quot;nofollow&quot; target=&quot;_NEW&quot;&gt;\nhttp://img706.imageshack.us/img706/1719/9msc.png&lt;/a&gt;  &lt;a href=&quot;\nhttp://img35.imageshack.us/img35/6894/ak4q.png&quot; rel=&quot;nofollow&quot; target=&quot;_NEW&quot;&gt;\nhttp://img35.imageshack.us/img35/6894/ak4q.png&lt;/a&gt;  &lt;a href=&quot;\nhttp://img850.imageshack.us/img850/599/a2f4.png&quot; rel=&quot;nofollow&quot; target=&quot;_NEW&quot;&gt;\nhttp://img850.imageshack.us/img850/599/a2f4.png&lt;/a&gt;  &lt;a href=&quot;\nhttp://img836.imageshack.us/img836/1711/67hs.png&quot; rel=&quot;nofollow&quot; target=&quot;_NEW&quot;&gt;\nhttp://img836.imageshack.us/img836/1711/67hs.png&lt;/a&gt;\n\n\n\nA/V  6/6","torrent":{"xt":"urn:btih:27e0982f180aa01336f5f15caf39a43fd370be82","amp;dn":"Turbo+2013+CAM+x264+AAC-KiSSMYACE","amp;tr":["udp%3A%2F%2Ftracker.openbittorrent.com%3A80","udp%3A%2F%2Fopen.demonii.com%3A1337","udp%3A%2F%2Ftracker.coppersurfer.tk%3A6969","udp%3A%2F%2Fexodus.desync.com%3A6969"],"infoHash":"27e0982f180aa01336f5f15caf39a43fd370be82","infoHashBuffer":{"type":"Buffer","data":[39,224,152,47,24,10,160,19,54,245,241,92,175,57,164,63,211,112,190,130]},"announce":[],"urlList":[]}}